HIERARCHY
ROOT RootJoint
{
    OFFSET   0.000000   0.000000   0.000000
    CHANNELS 6 Xposition Yposition Zposition Xrotation Yrotation Zrotation
    JOINT pelvis_lowerback
    {
        OFFSET   0.000000   0.093605   0.000000
        CHANNELS 3 Xrotation Yrotation Zrotation
        JOINT lowerback_torso
        {
            OFFSET   0.000000   0.100000   0.000000
            CHANNELS 3 Xrotation Yrotation Zrotation
            JOINT torso_head
            {
                OFFSET   0.000000   0.282350   0.000000
                CHANNELS 3 Xrotation Yrotation Zrotation
                End Site
                {
                    OFFSET   0.000000   0.192650   0.000000
                }
            }
            JOINT rTorso_Clavicle
            {
                OFFSET  -0.001000   0.157500   0.000000
                CHANNELS 3 Xrotation Yrotation Zrotation
                JOINT rShoulder
                {
                    OFFSET  -0.117647   0.000000   0.000000
                    CHANNELS 3 Xrotation Yrotation Zrotation
                    JOINT rElbow
                    {
                        OFFSET  -0.245000   0.000000   0.000000
                        CHANNELS 3 Xrotation Yrotation Zrotation
                        JOINT rWrist
                        {
                            OFFSET  -0.240000   0.000000   0.000000
                            CHANNELS 3 Xrotation Yrotation Zrotation
                            End Site
                            {
                                OFFSET  -0.116353  -0.002500   0.000000
                            }
                        }
                    }
                }
            }
            JOINT lTorso_Clavicle
            {
                OFFSET   0.001000   0.157500   0.000000
                CHANNELS 3 Xrotation Yrotation Zrotation
                JOINT lShoulder
                {
                    OFFSET   0.117647   0.000000   0.000000
                    CHANNELS 3 Xrotation Yrotation Zrotation
                    JOINT lElbow
                    {
                        OFFSET   0.245000   0.000000   0.000000
                        CHANNELS 3 Xrotation Yrotation Zrotation
                        JOINT lWrist
                        {
                            OFFSET   0.240000   0.000000   0.000000
                            CHANNELS 3 Xrotation Yrotation Zrotation
                            End Site
                            {
                                OFFSET   0.116353  -0.002500   0.000000
                            }
                        }
                    }
                }
            }
        }
    }
    JOINT rHip
    {
        OFFSET  -0.100000  -0.051395   0.000000
        CHANNELS 3 Xrotation Yrotation Zrotation
        JOINT rKnee
        {
            OFFSET   0.000000  -0.410000   0.000000
            CHANNELS 3 Xrotation Yrotation Zrotation
            JOINT rAnkle
            {
                OFFSET   0.000000  -0.390000   0.000000
                CHANNELS 3 Xrotation Yrotation Zrotation
                JOINT rToeJoint
                {
                    OFFSET   0.000000  -0.050000   0.130000
                    CHANNELS 3 Xrotation Yrotation Zrotation
                    End Site
                    {
                        OFFSET  -0.010000   0.002000   0.060000
                    }
                }
            }
        }
    }
    JOINT lHip
    {
        OFFSET   0.100000  -0.051395   0.000000
        CHANNELS 3 Xrotation Yrotation Zrotation
        JOINT lKnee
        {
            OFFSET   0.000000  -0.410000   0.000000
            CHANNELS 3 Xrotation Yrotation Zrotation
            JOINT lAnkle
            {
                OFFSET   0.000000  -0.390000   0.000000
                CHANNELS 3 Xrotation Yrotation Zrotation
                JOINT lToeJoint
                {
                    OFFSET   0.000000  -0.050000   0.130000
                    CHANNELS 3 Xrotation Yrotation Zrotation
                    End Site
                    {
                        OFFSET   0.010000   0.002000   0.060000
                    }
                }
            }
        }
    }
}
MOTION
Frames: 8
Frame Time:   0.008333
 -2.498600   0.913295   4.447721  17.567884   6.105317   1.872795  16.428950  -8.166677   8.368123   4.527027 -12.049716  12.442091  -5.032619  11.919528  -4.280868  -0.997025   4.663871   0.994553   7.446398   7.869655  32.180265  -0.009721  40.301629  -0.017979   2.619628   2.100251  -5.782373 -10.543769 -33.915040  13.408909 -18.857689 -28.876304   4.727805  -0.000501 -11.727364  -0.001360   5.611494  -3.876040   6.488304 -30.993453   9.621862  -4.098611  15.845919   0.000022  -0.000805  -1.387742  -1.015315   2.318424  -0.790645   0.000068   0.000057  17.067526  12.335926   5.582881   8.413818   0.000412   0.003717   4.436742   7.215653 -11.135393  -0.310097  -0.000125  -0.000678
 -2.497861   0.913233   4.449644  17.552473   5.760021   1.910417  16.353456  -8.163673   8.435459   4.595611 -12.144256  12.538148  -4.885542  12.034777  -4.342404  -0.943333   4.445591   1.125048   7.447833   7.650952  32.469301  -0.010508  39.535307  -0.018764   2.542707   2.177005  -5.769458 -10.658974 -33.897162  13.266579 -18.949051 -29.198635   4.408630  -0.000002 -12.098748  -0.001795   5.553472  -3.859387   6.324507 -30.944657   9.781510  -3.999718  15.950572   0.000015  -0.000787  -1.563122  -0.860170   2.253843  -0.773687   0.000064   0.000045  16.987879  12.242566   5.449431   8.288425   0.000361   0.003409   4.661675   7.222340 -11.094581  -0.270714  -0.000133  -0.000678
 -2.497119   0.913196   4.451552  17.525523   5.426426   1.954611  16.273015  -8.166567   8.491826   4.662512 -12.241961  12.631034  -4.746807  12.146080  -4.405356  -0.878952   4.229034   1.264520   7.462067   7.435767  32.753679  -0.011143  38.805856  -0.019019   2.459705   2.165103  -5.726293 -10.756070 -33.891695  13.137662 -19.034180 -29.518533   4.101893   0.000337 -12.460682  -0.002088   5.503528  -3.940733   6.158034 -30.876329   9.935964  -3.914517  16.044708   0.000011  -0.000756  -1.733699  -0.707196   2.192654  -0.757207   0.000061   0.000036  16.909802  12.153803   5.321605   8.177657   0.000318   0.003093   4.873065   7.228474 -11.056575  -0.227490  -0.000142  -0.000685
 -2.496366   0.913167   4.453435  17.491051   5.097871   2.000737  16.191778  -8.179117   8.544098   4.725591 -12.343782  12.722477  -4.618008  12.250574  -4.466158  -0.811574   4.019071   1.403830   7.482079   7.230591  33.027238  -0.011471  38.122195  -0.018922   2.377647   2.126250  -5.661649 -10.841682 -33.892453  13.020478 -19.114168 -29.822835   3.812135   0.000518 -12.801806  -0.002261   5.458906  -4.051710   5.991278 -30.797002  10.087901  -3.836175  16.132299   0.000010  -0.000722  -1.899803  -0.554943   2.136336  -0.741426   0.000057   0.000029  16.834356  12.071456   5.200638   8.074384   0.000286   0.002805   5.070327   7.234357 -11.021081  -0.188181  -0.000146  -0.000674
 -2.495600   0.913139   4.455285  17.451367   4.771510   2.047062  16.110685  -8.200073   8.594770   4.783415 -12.447613  12.812739  -4.498382  12.348075  -4.523722  -0.744472   3.817673   1.538855   7.504912   7.036398  33.287154  -0.011505  37.483063  -0.018579   2.298252   2.080348  -5.586712 -10.919223 -33.896537  12.913698 -19.189751 -30.109698   3.540207   0.000574 -13.121547  -0.002341   5.417114  -4.169515   5.828859 -30.711190  10.238385  -3.762000  16.214981   0.000010  -0.000689  -2.061331  -0.402529   2.085052  -0.726331   0.000054   0.000023  16.761036  11.994888   5.086964   7.977357   0.000261   0.002547   5.254351   7.239984 -10.987928  -0.152581  -0.000146  -0.000651
 -2.494819   0.913109   4.457096  17.407507   4.446770   2.093035  16.030016  -8.227597   8.644755   4.835415 -12.551666  12.901667  -4.387180  12.438905  -4.577764  -0.679204   3.625756   1.667679   7.529036   6.853218  33.532396  -0.011303  36.886068  -0.018052   2.221905   2.033298  -5.507999 -10.990449 -33.902805  12.816633 -19.261264 -30.379472   3.286034   0.000540 -13.420807  -0.002347   5.377387  -4.287586   5.673530 -30.621028  10.387707  -3.691240  16.293619   0.000012  -0.000657  -2.218219  -0.249864   2.038643  -0.711858   0.000051   0.000019  16.689534  11.923504   4.980866   7.886114   0.000244   0.002317   5.426038   7.245343 -10.956959  -0.120226  -0.000144  -0.000621
 -2.494026   0.913077   4.458863  17.359957   4.124162   2.138601  15.949786  -8.260072   8.694290   4.881409 -12.654648  12.988995  -4.283743  12.523487  -4.628303  -0.616583   3.443758   1.789535   7.553527   6.680868  33.762888  -0.010925  36.328688  -0.017388   2.148669   1.987281  -5.428880 -11.056406 -33.910725  12.728701 -19.328918 -30.633038   3.049077   0.000446 -13.700792  -0.002298   5.339476  -4.404035   5.526580 -30.527586  10.535783  -3.623992  16.368770   0.000014  -0.000626  -2.370476  -0.097261   1.996819  -0.697931   0.000047   0.000015  16.619690  11.856838   4.882532   7.800288   0.000231   0.002111   5.586224   7.250432 -10.928029  -0.090754  -0.000141  -0.000586
 -2.493212   0.913151   4.460570  17.346891   3.815150   2.211832  15.816286  -8.271321   8.726549   4.893812 -12.735632  13.040057  -4.134368  12.599683  -4.701944  -0.548563   3.234521   1.894044   7.493954   6.492966  34.094286  -0.011249  35.602236  -0.018226   2.068071   2.019031  -5.360290 -11.184090 -33.872448  12.636077 -19.505219 -30.960797   2.616740   0.000511 -14.285601  -0.003162   5.288808  -4.373105   5.399392 -30.431471  10.687696  -3.600593  16.371157   0.000012  -0.000504  -2.482168   0.055545   1.952241  -0.682200   0.000047   0.000012  16.483743  11.759462   4.760754   7.774025   0.000196   0.001770   5.784740   7.261319 -10.882726  -0.012133  -0.000196  -0.000702
